<svg id="Layer_1" data-name="Layer 1" xmlns="http://www.w3.org/2000/svg" viewBox="0 0 512 512"><title>vaiArtboard 2</title><line x1="196.11" y1="89.49" x2="279.04" y2="61.84" style="fill:none;stroke:#fbb03b;stroke-linecap:round;stroke-linejoin:round;stroke-width:62.9890715996571px"/><polyline points="131.61 193.91 214.54 166.27 297.46 138.63 380.39 110.98" style="fill:none;stroke:#fbb03b;stroke-linecap:round;stroke-linejoin:round;stroke-width:62.9890715996571px"/><polyline points="131.61 276.83 214.54 249.19 297.46 221.55 380.39 193.91" style="fill:none;stroke:#fbb03b;stroke-linecap:round;stroke-linejoin:round;stroke-width:62.9890715996571px"/><polyline points="131.61 359.76 214.54 332.12 297.46 304.48 380.39 276.83" style="fill:none;stroke:#fbb03b;stroke-linecap:round;stroke-linejoin:round;stroke-width:62.9890715996571px"/><polyline points="214.54 399.68 297.46 372.04 297.46 408.9 214.54 436.54" style="fill:none;stroke:#534741;stroke-linecap:round;stroke-linejoin:round;stroke-width:27.6416034129852px"/><line x1="269.82" y1="454.97" x2="242.18" y2="464.18" style="fill:none;stroke:#534741;stroke-linecap:round;stroke-linejoin:round;stroke-width:27.6416034129852px"/><path d="M334.32,105.61s66-35.32,69.1,0C388.07,96.4,334.32,105.61,334.32,105.61Z" style="fill:#fff"/><path d="M230.66,55.27s66-35.32,69.1,0C284.41,46.06,230.66,55.27,230.66,55.27Z" style="fill:#fff"/><path d="M334.32,188.53s66-35.32,69.1,0C388.07,179.32,334.32,188.53,334.32,188.53Z" style="fill:#fff"/><path d="M334.32,271.46s66-35.32,69.1,0C388.07,262.25,334.32,271.46,334.32,271.46Z" style="fill:#fff"/></svg>